<mxfile host="app.diagrams.net" modified="2025-03-07T03:49:43.214Z" agent="Mozilla/5.0 (Windows NT 10.0; Win64; x64) AppleWebKit/537.36 (KHTML, like Gecko) Chrome/133.0.0.0 Safari/537.36" version="24.3.1" etag="o54QRZfP7t5Tnfa-vyPP" type="github">
  <diagram name="Page-1" id="bADbD2PKlJS76oJymorz">
    <mxGraphModel>
      <root>
        <mxCell id="0" />
        <mxCell id="1" parent="0" />
      </root>
    </mxGraphModel>
  </diagram>
</mxfile>
